<?xml version="1.0" standalone="no"?>
<!DOCTYPE svg PUBLIC "-//W3C//DTD SVG 20010904//EN"
 "http://www.w3.org/TR/2001/REC-SVG-20010904/DTD/svg10.dtd">
<svg version="1.0" xmlns="http://www.w3.org/2000/svg"
 width="700.000000pt" height="700.000000pt" viewBox="0 0 700.000000 700.000000"
 preserveAspectRatio="xMidYMid meet">
<metadata>
Created by potrace 1.11, written by Peter Selinger 2001-2013
</metadata>
<g transform="translate(0.000000,700.000000) scale(0.100000,-0.100000)"
fill="#000000" stroke="none">
<path d="M0 3500 l0 -3500 3500 0 3500 0 0 110 0 110 -2513 0 c-1381 0 -2907
0 -3389 0 l-878 0 0 3390 0 3390 -110 0 -110 0 0 -3500z"/>
<path d="M6948 5305 c-3 -3 -14 -7 -24 -10 -11 -2 -44 -10 -74 -18 -175 -48
-296 -80 -385 -103 -55 -15 -119 -33 -142 -40 -24 -8 -55 -16 -70 -19 -16 -2
-86 -21 -158 -41 -71 -19 -137 -37 -145 -39 -8 -2 -85 -22 -170 -45 -85 -23
-159 -43 -165 -44 -59 -12 -61 -8 151 -220 112 -112 204 -206 204 -210 0 -9
-1898 -1906 -1907 -1906 -5 0 -260 252 -568 560 -308 308 -563 560 -566 560
-5 0 -205 -175 -393 -345 -6 -5 -47 -41 -91 -80 -44 -38 -98 -86 -120 -106
-22 -20 -168 -150 -325 -289 -157 -139 -301 -267 -320 -284 -19 -18 -118 -106
-220 -196 -102 -89 -189 -168 -195 -174 -5 -6 -39 -36 -75 -66 -36 -30 -68
-59 -72 -64 -7 -10 107 -150 131 -160 8 -4 17 -3 20 1 5 7 177 161 445 397 38
34 79 70 92 81 12 11 53 47 90 80 80 70 140 124 249 221 44 39 127 113 185
164 58 51 121 107 140 124 19 17 71 63 115 101 44 39 85 75 91 80 6 6 46 42
89 80 43 39 83 75 90 80 6 6 23 21 38 34 l27 25 565 -565 c311 -310 569 -565
574 -567 5 -2 473 461 1040 1029 l1032 1031 241 -241 c132 -133 242 -240 244
-239 2 2 151 559 235 878 68 256 140 527 144 538 4 12 -36 18 -47 7z"/>
</g>
</svg>
